<mxfile host="www.draw.io" modified="2020-03-04T07:00:59.285Z" agent="Mozilla/5.0 (X11; Ubuntu; Linux x86_64; rv:65.0) Gecko/20100101 Firefox/65.0" etag="rheV_nhIBmoomcTbkmCq" version="12.7.9" type="github">
  <diagram id="C5RBs43oDa-KdzZeNtuy" name="Page-1">
    <mxGraphModel dx="1864" dy="627" grid="1" gridSize="10" guides="1" tooltips="1" connect="1" arrows="1" fold="1" page="1" pageScale="1" pageWidth="827" pageHeight="1169" math="0" shadow="0">
      <root>
        <mxCell id="WIyWlLk6GJQsqaUBKTNV-0" />
        <mxCell id="WIyWlLk6GJQsqaUBKTNV-1" parent="WIyWlLk6GJQsqaUBKTNV-0" />
        <mxCell id="g_3AbLO7XpX71Ketfgga-18" style="edgeStyle=orthogonalEdgeStyle;rounded=0;orthogonalLoop=1;jettySize=auto;html=1;exitX=0.5;exitY=1;exitDx=0;exitDy=0;entryX=0.5;entryY=0;entryDx=0;entryDy=0;" parent="WIyWlLk6GJQsqaUBKTNV-1" source="g_3AbLO7XpX71Ketfgga-0" target="g_3AbLO7XpX71Ketfgga-1" edge="1">
          <mxGeometry relative="1" as="geometry" />
        </mxCell>
        <mxCell id="g_3AbLO7XpX71Ketfgga-0" value="App User" style="rounded=0;whiteSpace=wrap;html=1;" parent="WIyWlLk6GJQsqaUBKTNV-1" vertex="1">
          <mxGeometry x="190" y="170" width="120" height="60" as="geometry" />
        </mxCell>
        <mxCell id="g_3AbLO7XpX71Ketfgga-1" value="" style="ellipse;whiteSpace=wrap;html=1;" parent="WIyWlLk6GJQsqaUBKTNV-1" vertex="1">
          <mxGeometry x="260" y="245" width="120" height="60" as="geometry" />
        </mxCell>
        <mxCell id="g_3AbLO7XpX71Ketfgga-2" value="Email ID" style="ellipse;whiteSpace=wrap;html=1;" parent="WIyWlLk6GJQsqaUBKTNV-1" vertex="1">
          <mxGeometry x="-40" y="160" width="120" height="60" as="geometry" />
        </mxCell>
        <mxCell id="g_3AbLO7XpX71Ketfgga-3" value="Name" style="ellipse;whiteSpace=wrap;html=1;" parent="WIyWlLk6GJQsqaUBKTNV-1" vertex="1">
          <mxGeometry x="100" y="50" width="120" height="60" as="geometry" />
        </mxCell>
        <mxCell id="g_3AbLO7XpX71Ketfgga-4" value="&lt;u&gt;User ID&lt;/u&gt;" style="ellipse;whiteSpace=wrap;html=1;" parent="WIyWlLk6GJQsqaUBKTNV-1" vertex="1">
          <mxGeometry x="290" y="60" width="120" height="60" as="geometry" />
        </mxCell>
        <mxCell id="g_3AbLO7XpX71Ketfgga-14" style="edgeStyle=orthogonalEdgeStyle;rounded=0;orthogonalLoop=1;jettySize=auto;html=1;exitX=1;exitY=0.5;exitDx=0;exitDy=0;entryX=0.111;entryY=0.4;entryDx=0;entryDy=0;entryPerimeter=0;" parent="WIyWlLk6GJQsqaUBKTNV-1" source="g_3AbLO7XpX71Ketfgga-5" target="g_3AbLO7XpX71Ketfgga-11" edge="1">
          <mxGeometry relative="1" as="geometry" />
        </mxCell>
        <mxCell id="g_3AbLO7XpX71Ketfgga-5" value="Address" style="ellipse;whiteSpace=wrap;html=1;" parent="WIyWlLk6GJQsqaUBKTNV-1" vertex="1">
          <mxGeometry x="360" y="170" width="120" height="60" as="geometry" />
        </mxCell>
        <mxCell id="g_3AbLO7XpX71Ketfgga-9" value="Contact Number" style="ellipse;whiteSpace=wrap;html=1;" parent="WIyWlLk6GJQsqaUBKTNV-1" vertex="1">
          <mxGeometry x="270" y="250" width="100" height="50" as="geometry" />
        </mxCell>
        <mxCell id="g_3AbLO7XpX71Ketfgga-10" value="Pin code" style="ellipse;whiteSpace=wrap;html=1;" parent="WIyWlLk6GJQsqaUBKTNV-1" vertex="1">
          <mxGeometry x="480" y="250" width="90" height="50" as="geometry" />
        </mxCell>
        <mxCell id="g_3AbLO7XpX71Ketfgga-11" value="Street" style="ellipse;whiteSpace=wrap;html=1;" parent="WIyWlLk6GJQsqaUBKTNV-1" vertex="1">
          <mxGeometry x="520" y="180" width="90" height="50" as="geometry" />
        </mxCell>
        <mxCell id="g_3AbLO7XpX71Ketfgga-12" value="Building" style="ellipse;whiteSpace=wrap;html=1;" parent="WIyWlLk6GJQsqaUBKTNV-1" vertex="1">
          <mxGeometry x="490" y="120" width="90" height="50" as="geometry" />
        </mxCell>
        <mxCell id="g_3AbLO7XpX71Ketfgga-21" value="Age" style="ellipse;whiteSpace=wrap;html=1;" parent="WIyWlLk6GJQsqaUBKTNV-1" vertex="1">
          <mxGeometry x="-30" y="80" width="120" height="60" as="geometry" />
        </mxCell>
        <mxCell id="g_3AbLO7XpX71Ketfgga-22" value="Profession" style="ellipse;whiteSpace=wrap;html=1;" parent="WIyWlLk6GJQsqaUBKTNV-1" vertex="1">
          <mxGeometry x="-20" y="250" width="120" height="60" as="geometry" />
        </mxCell>
        <mxCell id="g_3AbLO7XpX71Ketfgga-27" value="Victim" style="rounded=0;whiteSpace=wrap;html=1;" parent="WIyWlLk6GJQsqaUBKTNV-1" vertex="1">
          <mxGeometry x="420" y="460" width="120" height="60" as="geometry" />
        </mxCell>
        <mxCell id="g_3AbLO7XpX71Ketfgga-28" style="edgeStyle=orthogonalEdgeStyle;rounded=0;orthogonalLoop=1;jettySize=auto;html=1;exitX=0.5;exitY=1;exitDx=0;exitDy=0;" parent="WIyWlLk6GJQsqaUBKTNV-1" edge="1">
          <mxGeometry relative="1" as="geometry">
            <mxPoint x="100" y="490" as="sourcePoint" />
            <mxPoint x="100" y="490" as="targetPoint" />
          </mxGeometry>
        </mxCell>
        <mxCell id="g_3AbLO7XpX71Ketfgga-29" value="Time" style="ellipse;whiteSpace=wrap;html=1;" parent="WIyWlLk6GJQsqaUBKTNV-1" vertex="1">
          <mxGeometry x="440" y="600" width="120" height="60" as="geometry" />
        </mxCell>
        <mxCell id="g_3AbLO7XpX71Ketfgga-30" value="Date" style="ellipse;whiteSpace=wrap;html=1;" parent="WIyWlLk6GJQsqaUBKTNV-1" vertex="1">
          <mxGeometry x="560" y="570" width="120" height="60" as="geometry" />
        </mxCell>
        <mxCell id="g_3AbLO7XpX71Ketfgga-31" value="Activity" style="ellipse;whiteSpace=wrap;html=1;" parent="WIyWlLk6GJQsqaUBKTNV-1" vertex="1">
          <mxGeometry x="610" y="510" width="120" height="60" as="geometry" />
        </mxCell>
        <mxCell id="g_3AbLO7XpX71Ketfgga-32" value="Location" style="ellipse;whiteSpace=wrap;html=1;" parent="WIyWlLk6GJQsqaUBKTNV-1" vertex="1">
          <mxGeometry x="320" y="590" width="120" height="60" as="geometry" />
        </mxCell>
        <mxCell id="g_3AbLO7XpX71Ketfgga-33" value="Description" style="ellipse;whiteSpace=wrap;html=1;" parent="WIyWlLk6GJQsqaUBKTNV-1" vertex="1">
          <mxGeometry x="260" y="440" width="120" height="60" as="geometry" />
        </mxCell>
        <mxCell id="g_3AbLO7XpX71Ketfgga-34" value="&lt;u&gt;Victim ID&lt;/u&gt;" style="ellipse;whiteSpace=wrap;html=1;" parent="WIyWlLk6GJQsqaUBKTNV-1" vertex="1">
          <mxGeometry x="353" y="350" width="120" height="60" as="geometry" />
        </mxCell>
        <mxCell id="g_3AbLO7XpX71Ketfgga-36" value="PWD" style="ellipse;whiteSpace=wrap;html=1;" parent="WIyWlLk6GJQsqaUBKTNV-1" vertex="1">
          <mxGeometry x="640" y="450" width="120" height="60" as="geometry" />
        </mxCell>
        <mxCell id="g_3AbLO7XpX71Ketfgga-37" value="Photograph" style="ellipse;whiteSpace=wrap;html=1;" parent="WIyWlLk6GJQsqaUBKTNV-1" vertex="1">
          <mxGeometry x="250" y="520" width="120" height="60" as="geometry" />
        </mxCell>
        <mxCell id="g_3AbLO7XpX71Ketfgga-38" value="Sex" style="ellipse;whiteSpace=wrap;html=1;" parent="WIyWlLk6GJQsqaUBKTNV-1" vertex="1">
          <mxGeometry x="480" y="360" width="120" height="60" as="geometry" />
        </mxCell>
        <mxCell id="g_3AbLO7XpX71Ketfgga-39" value="Approx. Age" style="ellipse;whiteSpace=wrap;html=1;" parent="WIyWlLk6GJQsqaUBKTNV-1" vertex="1">
          <mxGeometry x="590" y="390" width="120" height="60" as="geometry" />
        </mxCell>
        <mxCell id="g_3AbLO7XpX71Ketfgga-40" value="Reports" style="rhombus;whiteSpace=wrap;html=1;" parent="WIyWlLk6GJQsqaUBKTNV-1" vertex="1">
          <mxGeometry x="140" y="350" width="160" height="80" as="geometry" />
        </mxCell>
        <mxCell id="g_3AbLO7XpX71Ketfgga-57" value="Missing Report" style="rounded=0;whiteSpace=wrap;html=1;" parent="WIyWlLk6GJQsqaUBKTNV-1" vertex="1">
          <mxGeometry x="-160" y="550" width="120" height="60" as="geometry" />
        </mxCell>
        <mxCell id="g_3AbLO7XpX71Ketfgga-82" value="Complainant" style="ellipse;whiteSpace=wrap;html=1;" parent="WIyWlLk6GJQsqaUBKTNV-1" vertex="1">
          <mxGeometry x="-290" y="630" width="120" height="60" as="geometry" />
        </mxCell>
        <mxCell id="g_3AbLO7XpX71Ketfgga-119" style="edgeStyle=orthogonalEdgeStyle;rounded=0;orthogonalLoop=1;jettySize=auto;html=1;exitX=1;exitY=0.5;exitDx=0;exitDy=0;entryX=0.111;entryY=0.4;entryDx=0;entryDy=0;entryPerimeter=0;" parent="WIyWlLk6GJQsqaUBKTNV-1" source="g_3AbLO7XpX71Ketfgga-85" target="g_3AbLO7XpX71Ketfgga-109" edge="1">
          <mxGeometry relative="1" as="geometry" />
        </mxCell>
        <mxCell id="g_3AbLO7XpX71Ketfgga-85" value="Police Officer" style="ellipse;whiteSpace=wrap;html=1;" parent="WIyWlLk6GJQsqaUBKTNV-1" vertex="1">
          <mxGeometry x="-20" y="620" width="120" height="60" as="geometry" />
        </mxCell>
        <mxCell id="g_3AbLO7XpX71Ketfgga-89" value="Name" style="ellipse;whiteSpace=wrap;html=1;" parent="WIyWlLk6GJQsqaUBKTNV-1" vertex="1">
          <mxGeometry x="-380" y="410" width="90" height="50" as="geometry" />
        </mxCell>
        <mxCell id="g_3AbLO7XpX71Ketfgga-90" value="Medical Info" style="ellipse;whiteSpace=wrap;html=1;" parent="WIyWlLk6GJQsqaUBKTNV-1" vertex="1">
          <mxGeometry x="-310" y="280" width="90" height="50" as="geometry" />
        </mxCell>
        <mxCell id="g_3AbLO7XpX71Ketfgga-91" value="DOB" style="ellipse;whiteSpace=wrap;html=1;" parent="WIyWlLk6GJQsqaUBKTNV-1" vertex="1">
          <mxGeometry x="-390" y="340" width="90" height="50" as="geometry" />
        </mxCell>
        <mxCell id="g_3AbLO7XpX71Ketfgga-97" style="edgeStyle=orthogonalEdgeStyle;rounded=0;orthogonalLoop=1;jettySize=auto;html=1;exitX=1;exitY=0;exitDx=0;exitDy=0;entryX=0.444;entryY=0.8;entryDx=0;entryDy=0;entryPerimeter=0;" parent="WIyWlLk6GJQsqaUBKTNV-1" source="g_3AbLO7XpX71Ketfgga-92" target="g_3AbLO7XpX71Ketfgga-96" edge="1">
          <mxGeometry relative="1" as="geometry" />
        </mxCell>
        <mxCell id="g_3AbLO7XpX71Ketfgga-103" style="edgeStyle=orthogonalEdgeStyle;rounded=0;orthogonalLoop=1;jettySize=auto;html=1;exitX=0.5;exitY=1;exitDx=0;exitDy=0;entryX=1;entryY=0;entryDx=0;entryDy=0;" parent="WIyWlLk6GJQsqaUBKTNV-1" source="g_3AbLO7XpX71Ketfgga-92" target="g_3AbLO7XpX71Ketfgga-95" edge="1">
          <mxGeometry relative="1" as="geometry" />
        </mxCell>
        <mxCell id="uQe86zhzLnGdZcklWKUr-6" value="" style="edgeStyle=orthogonalEdgeStyle;rounded=0;orthogonalLoop=1;jettySize=auto;html=1;" edge="1" parent="WIyWlLk6GJQsqaUBKTNV-1" source="g_3AbLO7XpX71Ketfgga-92" target="g_3AbLO7XpX71Ketfgga-91">
          <mxGeometry relative="1" as="geometry" />
        </mxCell>
        <mxCell id="g_3AbLO7XpX71Ketfgga-92" value="Missing person" style="rounded=0;whiteSpace=wrap;html=1;" parent="WIyWlLk6GJQsqaUBKTNV-1" vertex="1">
          <mxGeometry x="-260" y="360" width="120" height="60" as="geometry" />
        </mxCell>
        <mxCell id="g_3AbLO7XpX71Ketfgga-94" value="Name" style="ellipse;whiteSpace=wrap;html=1;" parent="WIyWlLk6GJQsqaUBKTNV-1" vertex="1">
          <mxGeometry x="-380" y="555" width="90" height="50" as="geometry" />
        </mxCell>
        <mxCell id="g_3AbLO7XpX71Ketfgga-95" value="Sex" style="ellipse;whiteSpace=wrap;html=1;" parent="WIyWlLk6GJQsqaUBKTNV-1" vertex="1">
          <mxGeometry x="-280" y="450" width="90" height="50" as="geometry" />
        </mxCell>
        <mxCell id="g_3AbLO7XpX71Ketfgga-96" value="Photograph" style="ellipse;whiteSpace=wrap;html=1;" parent="WIyWlLk6GJQsqaUBKTNV-1" vertex="1">
          <mxGeometry x="-180" y="280" width="90" height="50" as="geometry" />
        </mxCell>
        <mxCell id="g_3AbLO7XpX71Ketfgga-104" value="Address" style="ellipse;whiteSpace=wrap;html=1;" parent="WIyWlLk6GJQsqaUBKTNV-1" vertex="1">
          <mxGeometry x="-420" y="625" width="90" height="50" as="geometry" />
        </mxCell>
        <mxCell id="g_3AbLO7XpX71Ketfgga-105" value="Contact Number" style="ellipse;whiteSpace=wrap;html=1;" parent="WIyWlLk6GJQsqaUBKTNV-1" vertex="1">
          <mxGeometry x="-200" y="730" width="90" height="50" as="geometry" />
        </mxCell>
        <mxCell id="g_3AbLO7XpX71Ketfgga-106" value="Sex" style="ellipse;whiteSpace=wrap;html=1;" parent="WIyWlLk6GJQsqaUBKTNV-1" vertex="1">
          <mxGeometry x="-310" y="730" width="90" height="50" as="geometry" />
        </mxCell>
        <mxCell id="g_3AbLO7XpX71Ketfgga-107" value="DOB" style="ellipse;whiteSpace=wrap;html=1;" parent="WIyWlLk6GJQsqaUBKTNV-1" vertex="1">
          <mxGeometry x="-400" y="700" width="90" height="50" as="geometry" />
        </mxCell>
        <mxCell id="g_3AbLO7XpX71Ketfgga-108" value="Name" style="ellipse;whiteSpace=wrap;html=1;" parent="WIyWlLk6GJQsqaUBKTNV-1" vertex="1">
          <mxGeometry x="-30" y="710" width="90" height="50" as="geometry" />
        </mxCell>
        <mxCell id="g_3AbLO7XpX71Ketfgga-109" value="ID Number" style="ellipse;whiteSpace=wrap;html=1;" parent="WIyWlLk6GJQsqaUBKTNV-1" vertex="1">
          <mxGeometry x="140" y="630" width="90" height="50" as="geometry" />
        </mxCell>
        <mxCell id="g_3AbLO7XpX71Ketfgga-110" value="Dept. Name" style="ellipse;whiteSpace=wrap;html=1;" parent="WIyWlLk6GJQsqaUBKTNV-1" vertex="1">
          <mxGeometry x="90" y="700" width="90" height="50" as="geometry" />
        </mxCell>
        <mxCell id="g_3AbLO7XpX71Ketfgga-122" value="Contains" style="rhombus;whiteSpace=wrap;html=1;" parent="WIyWlLk6GJQsqaUBKTNV-1" vertex="1">
          <mxGeometry x="-100" y="420" width="130" height="80" as="geometry" />
        </mxCell>
        <mxCell id="g_3AbLO7XpX71Ketfgga-124" value="" style="endArrow=none;html=1;entryX=0.5;entryY=0;entryDx=0;entryDy=0;" parent="WIyWlLk6GJQsqaUBKTNV-1" target="g_3AbLO7XpX71Ketfgga-122" edge="1">
          <mxGeometry width="50" height="50" relative="1" as="geometry">
            <mxPoint x="-140" y="390" as="sourcePoint" />
            <mxPoint x="-90" y="340" as="targetPoint" />
          </mxGeometry>
        </mxCell>
        <mxCell id="g_3AbLO7XpX71Ketfgga-126" value="" style="endArrow=none;html=1;" parent="WIyWlLk6GJQsqaUBKTNV-1" edge="1">
          <mxGeometry width="50" height="50" relative="1" as="geometry">
            <mxPoint x="-90" y="550" as="sourcePoint" />
            <mxPoint x="-40" y="500" as="targetPoint" />
          </mxGeometry>
        </mxCell>
        <mxCell id="g_3AbLO7XpX71Ketfgga-127" value="" style="endArrow=none;html=1;exitX=0.5;exitY=0;exitDx=0;exitDy=0;" parent="WIyWlLk6GJQsqaUBKTNV-1" source="g_3AbLO7XpX71Ketfgga-40" edge="1">
          <mxGeometry width="50" height="50" relative="1" as="geometry">
            <mxPoint x="195" y="280" as="sourcePoint" />
            <mxPoint x="245" y="230" as="targetPoint" />
          </mxGeometry>
        </mxCell>
        <mxCell id="g_3AbLO7XpX71Ketfgga-128" value="" style="endArrow=none;html=1;entryX=0;entryY=0;entryDx=0;entryDy=0;" parent="WIyWlLk6GJQsqaUBKTNV-1" target="g_3AbLO7XpX71Ketfgga-27" edge="1">
          <mxGeometry width="50" height="50" relative="1" as="geometry">
            <mxPoint x="300" y="390" as="sourcePoint" />
            <mxPoint x="350" y="340" as="targetPoint" />
          </mxGeometry>
        </mxCell>
        <mxCell id="g_3AbLO7XpX71Ketfgga-129" value="Matches" style="rhombus;whiteSpace=wrap;html=1;" parent="WIyWlLk6GJQsqaUBKTNV-1" vertex="1">
          <mxGeometry x="80" y="490" width="120" height="80" as="geometry" />
        </mxCell>
        <mxCell id="g_3AbLO7XpX71Ketfgga-130" value="" style="endArrow=none;html=1;entryX=0;entryY=0.5;entryDx=0;entryDy=0;" parent="WIyWlLk6GJQsqaUBKTNV-1" target="g_3AbLO7XpX71Ketfgga-27" edge="1">
          <mxGeometry width="50" height="50" relative="1" as="geometry">
            <mxPoint x="200" y="530" as="sourcePoint" />
            <mxPoint x="250" y="480" as="targetPoint" />
          </mxGeometry>
        </mxCell>
        <mxCell id="g_3AbLO7XpX71Ketfgga-132" value="" style="endArrow=none;html=1;entryX=0;entryY=0.5;entryDx=0;entryDy=0;" parent="WIyWlLk6GJQsqaUBKTNV-1" target="g_3AbLO7XpX71Ketfgga-129" edge="1">
          <mxGeometry width="50" height="50" relative="1" as="geometry">
            <mxPoint x="-40" y="550" as="sourcePoint" />
            <mxPoint x="10" y="500" as="targetPoint" />
          </mxGeometry>
        </mxCell>
        <mxCell id="uQe86zhzLnGdZcklWKUr-0" value="Administrator" style="rounded=0;whiteSpace=wrap;html=1;" vertex="1" parent="WIyWlLk6GJQsqaUBKTNV-1">
          <mxGeometry x="-370" y="120" width="120" height="60" as="geometry" />
        </mxCell>
        <mxCell id="uQe86zhzLnGdZcklWKUr-12" value="" style="endArrow=none;html=1;" edge="1" parent="WIyWlLk6GJQsqaUBKTNV-1">
          <mxGeometry width="50" height="50" relative="1" as="geometry">
            <mxPoint x="-290" y="430" as="sourcePoint" />
            <mxPoint x="-260" y="400" as="targetPoint" />
          </mxGeometry>
        </mxCell>
        <mxCell id="uQe86zhzLnGdZcklWKUr-14" value="" style="endArrow=none;html=1;exitX=1;exitY=1;exitDx=0;exitDy=0;entryX=0.5;entryY=0;entryDx=0;entryDy=0;" edge="1" parent="WIyWlLk6GJQsqaUBKTNV-1" source="g_3AbLO7XpX71Ketfgga-90" target="g_3AbLO7XpX71Ketfgga-92">
          <mxGeometry width="50" height="50" relative="1" as="geometry">
            <mxPoint x="-200" y="410" as="sourcePoint" />
            <mxPoint x="-150" y="360" as="targetPoint" />
          </mxGeometry>
        </mxCell>
        <mxCell id="uQe86zhzLnGdZcklWKUr-15" value="Contact Number" style="ellipse;whiteSpace=wrap;html=1;" vertex="1" parent="WIyWlLk6GJQsqaUBKTNV-1">
          <mxGeometry x="-440" y="200" width="120" height="60" as="geometry" />
        </mxCell>
        <mxCell id="uQe86zhzLnGdZcklWKUr-16" value="E-mail ID" style="ellipse;whiteSpace=wrap;html=1;" vertex="1" parent="WIyWlLk6GJQsqaUBKTNV-1">
          <mxGeometry x="-533" y="115" width="120" height="60" as="geometry" />
        </mxCell>
        <mxCell id="uQe86zhzLnGdZcklWKUr-17" value="Name" style="ellipse;whiteSpace=wrap;html=1;" vertex="1" parent="WIyWlLk6GJQsqaUBKTNV-1">
          <mxGeometry x="-250" y="40" width="120" height="60" as="geometry" />
        </mxCell>
        <mxCell id="uQe86zhzLnGdZcklWKUr-18" value="&lt;u&gt;AdminID&lt;/u&gt;" style="ellipse;whiteSpace=wrap;html=1;" vertex="1" parent="WIyWlLk6GJQsqaUBKTNV-1">
          <mxGeometry x="-410" y="20" width="120" height="60" as="geometry" />
        </mxCell>
        <mxCell id="uQe86zhzLnGdZcklWKUr-19" value="" style="endArrow=none;html=1;exitX=0.575;exitY=1.033;exitDx=0;exitDy=0;exitPerimeter=0;entryX=0.4;entryY=0;entryDx=0;entryDy=0;entryPerimeter=0;" edge="1" parent="WIyWlLk6GJQsqaUBKTNV-1" source="uQe86zhzLnGdZcklWKUr-18" target="uQe86zhzLnGdZcklWKUr-0">
          <mxGeometry width="50" height="50" relative="1" as="geometry">
            <mxPoint x="-20" y="230" as="sourcePoint" />
            <mxPoint x="30" y="180" as="targetPoint" />
          </mxGeometry>
        </mxCell>
        <mxCell id="uQe86zhzLnGdZcklWKUr-20" value="" style="endArrow=none;html=1;entryX=0.5;entryY=1;entryDx=0;entryDy=0;exitX=1;exitY=0;exitDx=0;exitDy=0;" edge="1" parent="WIyWlLk6GJQsqaUBKTNV-1" source="uQe86zhzLnGdZcklWKUr-0" target="uQe86zhzLnGdZcklWKUr-17">
          <mxGeometry width="50" height="50" relative="1" as="geometry">
            <mxPoint x="-20" y="230" as="sourcePoint" />
            <mxPoint x="30" y="180" as="targetPoint" />
          </mxGeometry>
        </mxCell>
        <mxCell id="uQe86zhzLnGdZcklWKUr-21" value="" style="endArrow=none;html=1;exitX=0.45;exitY=1.017;exitDx=0;exitDy=0;exitPerimeter=0;entryX=1;entryY=0;entryDx=0;entryDy=0;" edge="1" parent="WIyWlLk6GJQsqaUBKTNV-1" source="uQe86zhzLnGdZcklWKUr-0" target="uQe86zhzLnGdZcklWKUr-15">
          <mxGeometry width="50" height="50" relative="1" as="geometry">
            <mxPoint x="-20" y="230" as="sourcePoint" />
            <mxPoint x="30" y="180" as="targetPoint" />
          </mxGeometry>
        </mxCell>
        <mxCell id="uQe86zhzLnGdZcklWKUr-22" value="" style="endArrow=none;html=1;entryX=0;entryY=0.5;entryDx=0;entryDy=0;" edge="1" parent="WIyWlLk6GJQsqaUBKTNV-1" target="uQe86zhzLnGdZcklWKUr-0">
          <mxGeometry width="50" height="50" relative="1" as="geometry">
            <mxPoint x="-410" y="150" as="sourcePoint" />
            <mxPoint x="30" y="180" as="targetPoint" />
          </mxGeometry>
        </mxCell>
        <mxCell id="uQe86zhzLnGdZcklWKUr-24" value="manages" style="rhombus;whiteSpace=wrap;html=1;" vertex="1" parent="WIyWlLk6GJQsqaUBKTNV-1">
          <mxGeometry x="-220" y="160" width="160" height="80" as="geometry" />
        </mxCell>
        <mxCell id="uQe86zhzLnGdZcklWKUr-25" value="" style="endArrow=none;html=1;entryX=0.044;entryY=0.538;entryDx=0;entryDy=0;entryPerimeter=0;exitX=1;exitY=1;exitDx=0;exitDy=0;" edge="1" parent="WIyWlLk6GJQsqaUBKTNV-1" source="uQe86zhzLnGdZcklWKUr-0" target="uQe86zhzLnGdZcklWKUr-24">
          <mxGeometry width="50" height="50" relative="1" as="geometry">
            <mxPoint x="-240" y="180" as="sourcePoint" />
            <mxPoint x="30" y="180" as="targetPoint" />
          </mxGeometry>
        </mxCell>
        <mxCell id="uQe86zhzLnGdZcklWKUr-26" value="" style="endArrow=none;html=1;exitX=1;exitY=0.5;exitDx=0;exitDy=0;entryX=0.35;entryY=0.983;entryDx=0;entryDy=0;entryPerimeter=0;" edge="1" parent="WIyWlLk6GJQsqaUBKTNV-1" source="uQe86zhzLnGdZcklWKUr-24" target="g_3AbLO7XpX71Ketfgga-0">
          <mxGeometry width="50" height="50" relative="1" as="geometry">
            <mxPoint x="-20" y="230" as="sourcePoint" />
            <mxPoint x="230" y="240" as="targetPoint" />
            <Array as="points">
              <mxPoint x="-40" y="330" />
              <mxPoint x="70" y="340" />
            </Array>
          </mxGeometry>
        </mxCell>
        <mxCell id="uQe86zhzLnGdZcklWKUr-27" value="Crime investigation cell " style="rounded=0;whiteSpace=wrap;html=1;" vertex="1" parent="WIyWlLk6GJQsqaUBKTNV-1">
          <mxGeometry x="130" y="870" width="120" height="60" as="geometry" />
        </mxCell>
        <mxCell id="uQe86zhzLnGdZcklWKUr-28" value="Nearest location" style="ellipse;whiteSpace=wrap;html=1;" vertex="1" parent="WIyWlLk6GJQsqaUBKTNV-1">
          <mxGeometry x="275" y="920" width="90" height="50" as="geometry" />
        </mxCell>
        <mxCell id="uQe86zhzLnGdZcklWKUr-29" value="Name" style="ellipse;whiteSpace=wrap;html=1;" vertex="1" parent="WIyWlLk6GJQsqaUBKTNV-1">
          <mxGeometry y="910" width="90" height="50" as="geometry" />
        </mxCell>
        <mxCell id="uQe86zhzLnGdZcklWKUr-30" value="Region" style="ellipse;whiteSpace=wrap;html=1;" vertex="1" parent="WIyWlLk6GJQsqaUBKTNV-1">
          <mxGeometry x="210" y="780" width="90" height="50" as="geometry" />
        </mxCell>
        <mxCell id="uQe86zhzLnGdZcklWKUr-31" value="Orphanages" style="rounded=0;whiteSpace=wrap;html=1;" vertex="1" parent="WIyWlLk6GJQsqaUBKTNV-1">
          <mxGeometry x="-310" y="890" width="120" height="60" as="geometry" />
        </mxCell>
        <mxCell id="uQe86zhzLnGdZcklWKUr-32" value="capacity" style="ellipse;whiteSpace=wrap;html=1;" vertex="1" parent="WIyWlLk6GJQsqaUBKTNV-1">
          <mxGeometry x="-300" y="990" width="90" height="50" as="geometry" />
        </mxCell>
        <mxCell id="uQe86zhzLnGdZcklWKUr-33" value="Contact number" style="ellipse;whiteSpace=wrap;html=1;" vertex="1" parent="WIyWlLk6GJQsqaUBKTNV-1">
          <mxGeometry x="-420" y="920" width="90" height="50" as="geometry" />
        </mxCell>
        <mxCell id="uQe86zhzLnGdZcklWKUr-34" value="Address" style="ellipse;whiteSpace=wrap;html=1;" vertex="1" parent="WIyWlLk6GJQsqaUBKTNV-1">
          <mxGeometry x="-235" y="810" width="90" height="50" as="geometry" />
        </mxCell>
        <mxCell id="uQe86zhzLnGdZcklWKUr-35" value="Name" style="ellipse;whiteSpace=wrap;html=1;" vertex="1" parent="WIyWlLk6GJQsqaUBKTNV-1">
          <mxGeometry x="-370" y="825" width="90" height="45" as="geometry" />
        </mxCell>
        <mxCell id="uQe86zhzLnGdZcklWKUr-36" value="Orphanage Manager" style="rounded=0;whiteSpace=wrap;html=1;" vertex="1" parent="WIyWlLk6GJQsqaUBKTNV-1">
          <mxGeometry x="-50" y="1040" width="120" height="60" as="geometry" />
        </mxCell>
        <mxCell id="uQe86zhzLnGdZcklWKUr-37" value="" style="endArrow=none;html=1;exitX=0.5;exitY=1;exitDx=0;exitDy=0;entryX=0.75;entryY=0;entryDx=0;entryDy=0;" edge="1" parent="WIyWlLk6GJQsqaUBKTNV-1" source="uQe86zhzLnGdZcklWKUr-34" target="uQe86zhzLnGdZcklWKUr-31">
          <mxGeometry width="50" height="50" relative="1" as="geometry">
            <mxPoint x="-20" y="900" as="sourcePoint" />
            <mxPoint x="30" y="850" as="targetPoint" />
          </mxGeometry>
        </mxCell>
        <mxCell id="uQe86zhzLnGdZcklWKUr-38" value="" style="endArrow=none;html=1;exitX=1;exitY=0;exitDx=0;exitDy=0;entryX=0;entryY=0.5;entryDx=0;entryDy=0;" edge="1" parent="WIyWlLk6GJQsqaUBKTNV-1" source="uQe86zhzLnGdZcklWKUr-33" target="uQe86zhzLnGdZcklWKUr-31">
          <mxGeometry width="50" height="50" relative="1" as="geometry">
            <mxPoint x="-20" y="900" as="sourcePoint" />
            <mxPoint x="30" y="850" as="targetPoint" />
          </mxGeometry>
        </mxCell>
        <mxCell id="uQe86zhzLnGdZcklWKUr-39" value="" style="endArrow=none;html=1;entryX=0;entryY=0;entryDx=0;entryDy=0;" edge="1" parent="WIyWlLk6GJQsqaUBKTNV-1" target="uQe86zhzLnGdZcklWKUr-31">
          <mxGeometry width="50" height="50" relative="1" as="geometry">
            <mxPoint x="-330" y="870" as="sourcePoint" />
            <mxPoint x="-280" y="820" as="targetPoint" />
          </mxGeometry>
        </mxCell>
        <mxCell id="uQe86zhzLnGdZcklWKUr-40" value="" style="endArrow=none;html=1;exitX=0.5;exitY=1;exitDx=0;exitDy=0;" edge="1" parent="WIyWlLk6GJQsqaUBKTNV-1" source="uQe86zhzLnGdZcklWKUr-31" target="uQe86zhzLnGdZcklWKUr-32">
          <mxGeometry width="50" height="50" relative="1" as="geometry">
            <mxPoint x="-20" y="900" as="sourcePoint" />
            <mxPoint x="30" y="850" as="targetPoint" />
          </mxGeometry>
        </mxCell>
        <mxCell id="uQe86zhzLnGdZcklWKUr-41" value="" style="endArrow=none;html=1;entryX=0;entryY=0.5;entryDx=0;entryDy=0;exitX=1;exitY=0;exitDx=0;exitDy=0;" edge="1" parent="WIyWlLk6GJQsqaUBKTNV-1" source="uQe86zhzLnGdZcklWKUr-29" target="uQe86zhzLnGdZcklWKUr-27">
          <mxGeometry width="50" height="50" relative="1" as="geometry">
            <mxPoint x="-20" y="900" as="sourcePoint" />
            <mxPoint x="30" y="850" as="targetPoint" />
          </mxGeometry>
        </mxCell>
        <mxCell id="uQe86zhzLnGdZcklWKUr-42" value="" style="endArrow=none;html=1;entryX=0.5;entryY=1;entryDx=0;entryDy=0;exitX=0.75;exitY=0;exitDx=0;exitDy=0;" edge="1" parent="WIyWlLk6GJQsqaUBKTNV-1" source="uQe86zhzLnGdZcklWKUr-27" target="uQe86zhzLnGdZcklWKUr-30">
          <mxGeometry width="50" height="50" relative="1" as="geometry">
            <mxPoint x="-20" y="900" as="sourcePoint" />
            <mxPoint x="30" y="850" as="targetPoint" />
          </mxGeometry>
        </mxCell>
        <mxCell id="uQe86zhzLnGdZcklWKUr-43" value="" style="endArrow=none;html=1;exitX=1;exitY=0.25;exitDx=0;exitDy=0;" edge="1" parent="WIyWlLk6GJQsqaUBKTNV-1" source="uQe86zhzLnGdZcklWKUr-27">
          <mxGeometry width="50" height="50" relative="1" as="geometry">
            <mxPoint x="270" y="900" as="sourcePoint" />
            <mxPoint x="320" y="850" as="targetPoint" />
          </mxGeometry>
        </mxCell>
        <mxCell id="uQe86zhzLnGdZcklWKUr-44" value="&lt;u&gt;OrphanageID&lt;/u&gt;" style="ellipse;whiteSpace=wrap;html=1;" vertex="1" parent="WIyWlLk6GJQsqaUBKTNV-1">
          <mxGeometry x="-410" y="1000" width="90" height="50" as="geometry" />
        </mxCell>
        <mxCell id="uQe86zhzLnGdZcklWKUr-45" value="OrphangeID" style="ellipse;whiteSpace=wrap;html=1;" vertex="1" parent="WIyWlLk6GJQsqaUBKTNV-1">
          <mxGeometry x="120" y="1060" width="90" height="50" as="geometry" />
        </mxCell>
        <mxCell id="uQe86zhzLnGdZcklWKUr-46" value="Contact number" style="ellipse;whiteSpace=wrap;html=1;" vertex="1" parent="WIyWlLk6GJQsqaUBKTNV-1">
          <mxGeometry x="-40" y="1119" width="90" height="50" as="geometry" />
        </mxCell>
        <mxCell id="uQe86zhzLnGdZcklWKUr-47" value="Name" style="ellipse;whiteSpace=wrap;html=1;" vertex="1" parent="WIyWlLk6GJQsqaUBKTNV-1">
          <mxGeometry x="-180" y="1090" width="90" height="50" as="geometry" />
        </mxCell>
        <mxCell id="uQe86zhzLnGdZcklWKUr-48" value="report" style="ellipse;whiteSpace=wrap;html=1;" vertex="1" parent="WIyWlLk6GJQsqaUBKTNV-1">
          <mxGeometry x="320" y="825" width="90" height="50" as="geometry" />
        </mxCell>
        <mxCell id="uQe86zhzLnGdZcklWKUr-49" value="" style="endArrow=none;html=1;entryX=-0.011;entryY=0.64;entryDx=0;entryDy=0;entryPerimeter=0;exitX=1;exitY=1;exitDx=0;exitDy=0;" edge="1" parent="WIyWlLk6GJQsqaUBKTNV-1" source="uQe86zhzLnGdZcklWKUr-27" target="uQe86zhzLnGdZcklWKUr-28">
          <mxGeometry width="50" height="50" relative="1" as="geometry">
            <mxPoint x="-20" y="1040" as="sourcePoint" />
            <mxPoint x="30" y="990" as="targetPoint" />
          </mxGeometry>
        </mxCell>
        <mxCell id="uQe86zhzLnGdZcklWKUr-50" value="" style="endArrow=none;html=1;exitX=0.767;exitY=0.04;exitDx=0;exitDy=0;exitPerimeter=0;entryX=0.25;entryY=1;entryDx=0;entryDy=0;" edge="1" parent="WIyWlLk6GJQsqaUBKTNV-1" source="uQe86zhzLnGdZcklWKUr-44" target="uQe86zhzLnGdZcklWKUr-31">
          <mxGeometry width="50" height="50" relative="1" as="geometry">
            <mxPoint x="-20" y="1040" as="sourcePoint" />
            <mxPoint x="30" y="990" as="targetPoint" />
          </mxGeometry>
        </mxCell>
        <mxCell id="uQe86zhzLnGdZcklWKUr-52" value="manages" style="rhombus;whiteSpace=wrap;html=1;" vertex="1" parent="WIyWlLk6GJQsqaUBKTNV-1">
          <mxGeometry x="-180" y="940" width="120" height="80" as="geometry" />
        </mxCell>
        <mxCell id="uQe86zhzLnGdZcklWKUr-53" value="" style="endArrow=none;html=1;exitX=1;exitY=1;exitDx=0;exitDy=0;entryX=0;entryY=0.5;entryDx=0;entryDy=0;" edge="1" parent="WIyWlLk6GJQsqaUBKTNV-1" source="uQe86zhzLnGdZcklWKUr-31" target="uQe86zhzLnGdZcklWKUr-52">
          <mxGeometry width="50" height="50" relative="1" as="geometry">
            <mxPoint x="-20" y="810" as="sourcePoint" />
            <mxPoint x="30" y="760" as="targetPoint" />
          </mxGeometry>
        </mxCell>
        <mxCell id="uQe86zhzLnGdZcklWKUr-54" value="" style="endArrow=none;html=1;exitX=1;exitY=0.5;exitDx=0;exitDy=0;" edge="1" parent="WIyWlLk6GJQsqaUBKTNV-1" source="uQe86zhzLnGdZcklWKUr-52" target="uQe86zhzLnGdZcklWKUr-36">
          <mxGeometry width="50" height="50" relative="1" as="geometry">
            <mxPoint x="-20" y="810" as="sourcePoint" />
            <mxPoint x="30" y="760" as="targetPoint" />
          </mxGeometry>
        </mxCell>
        <mxCell id="uQe86zhzLnGdZcklWKUr-55" value="Statistics" style="rounded=0;whiteSpace=wrap;html=1;" vertex="1" parent="WIyWlLk6GJQsqaUBKTNV-1">
          <mxGeometry x="530" y="990" width="120" height="60" as="geometry" />
        </mxCell>
        <mxCell id="uQe86zhzLnGdZcklWKUr-56" value="Rescued Child" style="rounded=0;whiteSpace=wrap;html=1;" vertex="1" parent="WIyWlLk6GJQsqaUBKTNV-1">
          <mxGeometry x="530" y="750" width="120" height="60" as="geometry" />
        </mxCell>
        <mxCell id="uQe86zhzLnGdZcklWKUr-57" value="height" style="ellipse;whiteSpace=wrap;html=1;" vertex="1" parent="WIyWlLk6GJQsqaUBKTNV-1">
          <mxGeometry x="655" y="820" width="90" height="50" as="geometry" />
        </mxCell>
        <mxCell id="uQe86zhzLnGdZcklWKUr-58" value="age" style="ellipse;whiteSpace=wrap;html=1;" vertex="1" parent="WIyWlLk6GJQsqaUBKTNV-1">
          <mxGeometry x="650" y="690" width="90" height="50" as="geometry" />
        </mxCell>
        <mxCell id="uQe86zhzLnGdZcklWKUr-59" value="sex" style="ellipse;whiteSpace=wrap;html=1;" vertex="1" parent="WIyWlLk6GJQsqaUBKTNV-1">
          <mxGeometry x="545" y="670" width="90" height="50" as="geometry" />
        </mxCell>
        <mxCell id="uQe86zhzLnGdZcklWKUr-60" value="Name" style="ellipse;whiteSpace=wrap;html=1;" vertex="1" parent="WIyWlLk6GJQsqaUBKTNV-1">
          <mxGeometry x="440" y="700" width="90" height="50" as="geometry" />
        </mxCell>
        <mxCell id="uQe86zhzLnGdZcklWKUr-61" value="wieght" style="ellipse;whiteSpace=wrap;html=1;" vertex="1" parent="WIyWlLk6GJQsqaUBKTNV-1">
          <mxGeometry x="473" y="840" width="90" height="50" as="geometry" />
        </mxCell>
        <mxCell id="uQe86zhzLnGdZcklWKUr-62" value="orphanageID" style="ellipse;whiteSpace=wrap;html=1;" vertex="1" parent="WIyWlLk6GJQsqaUBKTNV-1">
          <mxGeometry x="690" y="750" width="90" height="50" as="geometry" />
        </mxCell>
        <mxCell id="uQe86zhzLnGdZcklWKUr-63" value="&lt;u&gt;RChildID&lt;/u&gt;" style="ellipse;whiteSpace=wrap;html=1;" vertex="1" parent="WIyWlLk6GJQsqaUBKTNV-1">
          <mxGeometry x="570" y="860" width="90" height="50" as="geometry" />
        </mxCell>
        <mxCell id="uQe86zhzLnGdZcklWKUr-64" value="" style="endArrow=none;html=1;exitX=0.575;exitY=1;exitDx=0;exitDy=0;exitPerimeter=0;entryX=0.5;entryY=0;entryDx=0;entryDy=0;" edge="1" parent="WIyWlLk6GJQsqaUBKTNV-1" source="uQe86zhzLnGdZcklWKUr-56" target="uQe86zhzLnGdZcklWKUr-63">
          <mxGeometry width="50" height="50" relative="1" as="geometry">
            <mxPoint x="620" y="870" as="sourcePoint" />
            <mxPoint x="670" y="820" as="targetPoint" />
          </mxGeometry>
        </mxCell>
        <mxCell id="uQe86zhzLnGdZcklWKUr-65" value="" style="endArrow=none;html=1;exitX=0;exitY=0;exitDx=0;exitDy=0;entryX=1;entryY=1;entryDx=0;entryDy=0;" edge="1" parent="WIyWlLk6GJQsqaUBKTNV-1" source="uQe86zhzLnGdZcklWKUr-56" target="uQe86zhzLnGdZcklWKUr-60">
          <mxGeometry width="50" height="50" relative="1" as="geometry">
            <mxPoint x="620" y="870" as="sourcePoint" />
            <mxPoint x="670" y="820" as="targetPoint" />
          </mxGeometry>
        </mxCell>
        <mxCell id="uQe86zhzLnGdZcklWKUr-66" value="" style="endArrow=none;html=1;exitX=0.5;exitY=0;exitDx=0;exitDy=0;" edge="1" parent="WIyWlLk6GJQsqaUBKTNV-1" source="uQe86zhzLnGdZcklWKUr-56" target="uQe86zhzLnGdZcklWKUr-59">
          <mxGeometry width="50" height="50" relative="1" as="geometry">
            <mxPoint x="620" y="870" as="sourcePoint" />
            <mxPoint x="670" y="820" as="targetPoint" />
          </mxGeometry>
        </mxCell>
        <mxCell id="uQe86zhzLnGdZcklWKUr-67" value="" style="endArrow=none;html=1;exitX=0.942;exitY=-0.017;exitDx=0;exitDy=0;exitPerimeter=0;entryX=0;entryY=1;entryDx=0;entryDy=0;" edge="1" parent="WIyWlLk6GJQsqaUBKTNV-1" source="uQe86zhzLnGdZcklWKUr-56" target="uQe86zhzLnGdZcklWKUr-58">
          <mxGeometry width="50" height="50" relative="1" as="geometry">
            <mxPoint x="620" y="870" as="sourcePoint" />
            <mxPoint x="670" y="820" as="targetPoint" />
          </mxGeometry>
        </mxCell>
        <mxCell id="uQe86zhzLnGdZcklWKUr-68" value="" style="endArrow=none;html=1;entryX=0.3;entryY=0.02;entryDx=0;entryDy=0;entryPerimeter=0;exitX=0.917;exitY=1;exitDx=0;exitDy=0;exitPerimeter=0;" edge="1" parent="WIyWlLk6GJQsqaUBKTNV-1" source="uQe86zhzLnGdZcklWKUr-56" target="uQe86zhzLnGdZcklWKUr-57">
          <mxGeometry width="50" height="50" relative="1" as="geometry">
            <mxPoint x="620" y="870" as="sourcePoint" />
            <mxPoint x="670" y="820" as="targetPoint" />
          </mxGeometry>
        </mxCell>
        <mxCell id="uQe86zhzLnGdZcklWKUr-69" value="" style="endArrow=none;html=1;exitX=1.033;exitY=0.65;exitDx=0;exitDy=0;exitPerimeter=0;" edge="1" parent="WIyWlLk6GJQsqaUBKTNV-1" source="uQe86zhzLnGdZcklWKUr-56" target="uQe86zhzLnGdZcklWKUr-62">
          <mxGeometry width="50" height="50" relative="1" as="geometry">
            <mxPoint x="620" y="870" as="sourcePoint" />
            <mxPoint x="670" y="820" as="targetPoint" />
          </mxGeometry>
        </mxCell>
        <mxCell id="uQe86zhzLnGdZcklWKUr-70" value="" style="endArrow=none;html=1;exitX=1;exitY=0;exitDx=0;exitDy=0;entryX=0.392;entryY=1;entryDx=0;entryDy=0;entryPerimeter=0;" edge="1" parent="WIyWlLk6GJQsqaUBKTNV-1" source="uQe86zhzLnGdZcklWKUr-61" target="uQe86zhzLnGdZcklWKUr-56">
          <mxGeometry width="50" height="50" relative="1" as="geometry">
            <mxPoint x="620" y="870" as="sourcePoint" />
            <mxPoint x="670" y="820" as="targetPoint" />
          </mxGeometry>
        </mxCell>
        <mxCell id="uQe86zhzLnGdZcklWKUr-71" value="" style="endArrow=none;html=1;exitX=1;exitY=0;exitDx=0;exitDy=0;entryX=0;entryY=0.5;entryDx=0;entryDy=0;" edge="1" parent="WIyWlLk6GJQsqaUBKTNV-1" source="uQe86zhzLnGdZcklWKUr-47" target="uQe86zhzLnGdZcklWKUr-36">
          <mxGeometry width="50" height="50" relative="1" as="geometry">
            <mxPoint x="60" y="1010" as="sourcePoint" />
            <mxPoint x="110" y="960" as="targetPoint" />
          </mxGeometry>
        </mxCell>
        <mxCell id="uQe86zhzLnGdZcklWKUr-72" value="" style="endArrow=none;html=1;entryX=0.5;entryY=0;entryDx=0;entryDy=0;exitX=0.417;exitY=1;exitDx=0;exitDy=0;exitPerimeter=0;" edge="1" parent="WIyWlLk6GJQsqaUBKTNV-1" source="uQe86zhzLnGdZcklWKUr-36" target="uQe86zhzLnGdZcklWKUr-46">
          <mxGeometry width="50" height="50" relative="1" as="geometry">
            <mxPoint x="60" y="1010" as="sourcePoint" />
            <mxPoint x="110" y="960" as="targetPoint" />
          </mxGeometry>
        </mxCell>
        <mxCell id="uQe86zhzLnGdZcklWKUr-73" value="" style="endArrow=none;html=1;exitX=0;exitY=0.5;exitDx=0;exitDy=0;entryX=1;entryY=0.5;entryDx=0;entryDy=0;" edge="1" parent="WIyWlLk6GJQsqaUBKTNV-1" source="uQe86zhzLnGdZcklWKUr-45" target="uQe86zhzLnGdZcklWKUr-36">
          <mxGeometry width="50" height="50" relative="1" as="geometry">
            <mxPoint x="60" y="1010" as="sourcePoint" />
            <mxPoint x="110" y="960" as="targetPoint" />
          </mxGeometry>
        </mxCell>
        <mxCell id="uQe86zhzLnGdZcklWKUr-74" value="no. of reports" style="ellipse;whiteSpace=wrap;html=1;" vertex="1" parent="WIyWlLk6GJQsqaUBKTNV-1">
          <mxGeometry x="430" y="1060" width="90" height="50" as="geometry" />
        </mxCell>
        <mxCell id="uQe86zhzLnGdZcklWKUr-75" value="&lt;u&gt;city&lt;/u&gt;" style="ellipse;whiteSpace=wrap;html=1;" vertex="1" parent="WIyWlLk6GJQsqaUBKTNV-1">
          <mxGeometry x="680" y="1010" width="90" height="50" as="geometry" />
        </mxCell>
        <mxCell id="uQe86zhzLnGdZcklWKUr-76" value="pincode" style="ellipse;whiteSpace=wrap;html=1;" vertex="1" parent="WIyWlLk6GJQsqaUBKTNV-1">
          <mxGeometry x="565" y="1090" width="90" height="50" as="geometry" />
        </mxCell>
        <mxCell id="uQe86zhzLnGdZcklWKUr-78" value="" style="endArrow=none;html=1;entryX=0;entryY=1;entryDx=0;entryDy=0;" edge="1" parent="WIyWlLk6GJQsqaUBKTNV-1" source="uQe86zhzLnGdZcklWKUr-74" target="uQe86zhzLnGdZcklWKUr-55">
          <mxGeometry width="50" height="50" relative="1" as="geometry">
            <mxPoint x="370" y="1020" as="sourcePoint" />
            <mxPoint x="420" y="970" as="targetPoint" />
          </mxGeometry>
        </mxCell>
        <mxCell id="uQe86zhzLnGdZcklWKUr-79" value="" style="endArrow=none;html=1;entryX=0;entryY=0.5;entryDx=0;entryDy=0;" edge="1" parent="WIyWlLk6GJQsqaUBKTNV-1" source="uQe86zhzLnGdZcklWKUr-55" target="uQe86zhzLnGdZcklWKUr-75">
          <mxGeometry width="50" height="50" relative="1" as="geometry">
            <mxPoint x="370" y="1020" as="sourcePoint" />
            <mxPoint x="420" y="970" as="targetPoint" />
          </mxGeometry>
        </mxCell>
        <mxCell id="uQe86zhzLnGdZcklWKUr-80" value="" style="endArrow=none;html=1;exitX=0.5;exitY=0;exitDx=0;exitDy=0;" edge="1" parent="WIyWlLk6GJQsqaUBKTNV-1" source="uQe86zhzLnGdZcklWKUr-76" target="uQe86zhzLnGdZcklWKUr-55">
          <mxGeometry width="50" height="50" relative="1" as="geometry">
            <mxPoint x="370" y="1020" as="sourcePoint" />
            <mxPoint x="420" y="970" as="targetPoint" />
          </mxGeometry>
        </mxCell>
        <mxCell id="uQe86zhzLnGdZcklWKUr-81" value="&lt;u&gt;cellID&lt;/u&gt;" style="ellipse;whiteSpace=wrap;html=1;" vertex="1" parent="WIyWlLk6GJQsqaUBKTNV-1">
          <mxGeometry x="110" y="960" width="90" height="50" as="geometry" />
        </mxCell>
        <mxCell id="uQe86zhzLnGdZcklWKUr-82" value="" style="endArrow=none;html=1;exitX=0.5;exitY=0;exitDx=0;exitDy=0;entryX=0.333;entryY=1;entryDx=0;entryDy=0;entryPerimeter=0;" edge="1" parent="WIyWlLk6GJQsqaUBKTNV-1" source="uQe86zhzLnGdZcklWKUr-81" target="uQe86zhzLnGdZcklWKUr-27">
          <mxGeometry width="50" height="50" relative="1" as="geometry">
            <mxPoint x="370" y="980" as="sourcePoint" />
            <mxPoint x="420" y="930" as="targetPoint" />
          </mxGeometry>
        </mxCell>
        <mxCell id="uQe86zhzLnGdZcklWKUr-83" value="" style="endArrow=none;html=1;exitX=1;exitY=1;exitDx=0;exitDy=0;" edge="1" parent="WIyWlLk6GJQsqaUBKTNV-1" source="uQe86zhzLnGdZcklWKUr-36">
          <mxGeometry width="50" height="50" relative="1" as="geometry">
            <mxPoint x="-30" y="980" as="sourcePoint" />
            <mxPoint x="100" y="1120" as="targetPoint" />
          </mxGeometry>
        </mxCell>
        <mxCell id="uQe86zhzLnGdZcklWKUr-84" value="&lt;u&gt;ManagerID&lt;/u&gt;" style="ellipse;whiteSpace=wrap;html=1;" vertex="1" parent="WIyWlLk6GJQsqaUBKTNV-1">
          <mxGeometry x="80" y="1110" width="90" height="50" as="geometry" />
        </mxCell>
        <mxCell id="uQe86zhzLnGdZcklWKUr-85" value="Missing person" style="rounded=0;whiteSpace=wrap;html=1;" vertex="1" parent="WIyWlLk6GJQsqaUBKTNV-1">
          <mxGeometry x="-250" y="365" width="100" height="50" as="geometry" />
        </mxCell>
        <mxCell id="uQe86zhzLnGdZcklWKUr-86" value="" style="endArrow=none;html=1;exitX=0.875;exitY=0;exitDx=0;exitDy=0;exitPerimeter=0;" edge="1" parent="WIyWlLk6GJQsqaUBKTNV-1" source="g_3AbLO7XpX71Ketfgga-0" target="g_3AbLO7XpX71Ketfgga-4">
          <mxGeometry width="50" height="50" relative="1" as="geometry">
            <mxPoint x="280" y="180" as="sourcePoint" />
            <mxPoint x="250" y="250" as="targetPoint" />
          </mxGeometry>
        </mxCell>
        <mxCell id="uQe86zhzLnGdZcklWKUr-87" value="" style="endArrow=none;html=1;entryX=0;entryY=0.5;entryDx=0;entryDy=0;exitX=1;exitY=0.5;exitDx=0;exitDy=0;" edge="1" parent="WIyWlLk6GJQsqaUBKTNV-1" source="g_3AbLO7XpX71Ketfgga-0" target="g_3AbLO7XpX71Ketfgga-5">
          <mxGeometry width="50" height="50" relative="1" as="geometry">
            <mxPoint x="200" y="300" as="sourcePoint" />
            <mxPoint x="250" y="250" as="targetPoint" />
          </mxGeometry>
        </mxCell>
        <mxCell id="uQe86zhzLnGdZcklWKUr-88" value="" style="endArrow=none;html=1;exitX=0.958;exitY=0.317;exitDx=0;exitDy=0;exitPerimeter=0;" edge="1" parent="WIyWlLk6GJQsqaUBKTNV-1" source="g_3AbLO7XpX71Ketfgga-22" target="g_3AbLO7XpX71Ketfgga-0">
          <mxGeometry width="50" height="50" relative="1" as="geometry">
            <mxPoint x="200" y="300" as="sourcePoint" />
            <mxPoint x="250" y="250" as="targetPoint" />
          </mxGeometry>
        </mxCell>
        <mxCell id="uQe86zhzLnGdZcklWKUr-89" value="" style="endArrow=none;html=1;entryX=0;entryY=0.5;entryDx=0;entryDy=0;" edge="1" parent="WIyWlLk6GJQsqaUBKTNV-1" source="g_3AbLO7XpX71Ketfgga-2" target="g_3AbLO7XpX71Ketfgga-0">
          <mxGeometry width="50" height="50" relative="1" as="geometry">
            <mxPoint x="200" y="300" as="sourcePoint" />
            <mxPoint x="250" y="250" as="targetPoint" />
          </mxGeometry>
        </mxCell>
        <mxCell id="uQe86zhzLnGdZcklWKUr-90" value="" style="endArrow=none;html=1;entryX=0;entryY=0;entryDx=0;entryDy=0;" edge="1" parent="WIyWlLk6GJQsqaUBKTNV-1" source="g_3AbLO7XpX71Ketfgga-21" target="g_3AbLO7XpX71Ketfgga-0">
          <mxGeometry width="50" height="50" relative="1" as="geometry">
            <mxPoint x="200" y="300" as="sourcePoint" />
            <mxPoint x="250" y="250" as="targetPoint" />
          </mxGeometry>
        </mxCell>
        <mxCell id="uQe86zhzLnGdZcklWKUr-91" value="" style="endArrow=none;html=1;" edge="1" parent="WIyWlLk6GJQsqaUBKTNV-1" source="g_3AbLO7XpX71Ketfgga-3" target="g_3AbLO7XpX71Ketfgga-0">
          <mxGeometry width="50" height="50" relative="1" as="geometry">
            <mxPoint x="200" y="300" as="sourcePoint" />
            <mxPoint x="250" y="250" as="targetPoint" />
          </mxGeometry>
        </mxCell>
        <mxCell id="uQe86zhzLnGdZcklWKUr-92" value="" style="endArrow=none;html=1;exitX=1;exitY=1;exitDx=0;exitDy=0;" edge="1" parent="WIyWlLk6GJQsqaUBKTNV-1" source="g_3AbLO7XpX71Ketfgga-0" target="g_3AbLO7XpX71Ketfgga-10">
          <mxGeometry width="50" height="50" relative="1" as="geometry">
            <mxPoint x="200" y="370" as="sourcePoint" />
            <mxPoint x="250" y="320" as="targetPoint" />
          </mxGeometry>
        </mxCell>
        <mxCell id="uQe86zhzLnGdZcklWKUr-93" value="" style="endArrow=none;html=1;" edge="1" parent="WIyWlLk6GJQsqaUBKTNV-1" source="g_3AbLO7XpX71Ketfgga-5" target="g_3AbLO7XpX71Ketfgga-12">
          <mxGeometry width="50" height="50" relative="1" as="geometry">
            <mxPoint x="200" y="370" as="sourcePoint" />
            <mxPoint x="250" y="320" as="targetPoint" />
          </mxGeometry>
        </mxCell>
        <mxCell id="uQe86zhzLnGdZcklWKUr-94" value="" style="endArrow=none;html=1;entryX=0.383;entryY=1;entryDx=0;entryDy=0;entryPerimeter=0;" edge="1" parent="WIyWlLk6GJQsqaUBKTNV-1" source="g_3AbLO7XpX71Ketfgga-27" target="g_3AbLO7XpX71Ketfgga-38">
          <mxGeometry width="50" height="50" relative="1" as="geometry">
            <mxPoint x="200" y="480" as="sourcePoint" />
            <mxPoint x="250" y="430" as="targetPoint" />
          </mxGeometry>
        </mxCell>
        <mxCell id="uQe86zhzLnGdZcklWKUr-95" value="" style="endArrow=none;html=1;entryX=-0.017;entryY=0.367;entryDx=0;entryDy=0;entryPerimeter=0;exitX=1;exitY=0.5;exitDx=0;exitDy=0;" edge="1" parent="WIyWlLk6GJQsqaUBKTNV-1" source="g_3AbLO7XpX71Ketfgga-33" target="g_3AbLO7XpX71Ketfgga-27">
          <mxGeometry width="50" height="50" relative="1" as="geometry">
            <mxPoint x="200" y="480" as="sourcePoint" />
            <mxPoint x="250" y="430" as="targetPoint" />
          </mxGeometry>
        </mxCell>
        <mxCell id="uQe86zhzLnGdZcklWKUr-96" value="" style="endArrow=none;html=1;entryX=0;entryY=0.75;entryDx=0;entryDy=0;" edge="1" parent="WIyWlLk6GJQsqaUBKTNV-1" source="g_3AbLO7XpX71Ketfgga-37" target="g_3AbLO7XpX71Ketfgga-27">
          <mxGeometry width="50" height="50" relative="1" as="geometry">
            <mxPoint x="200" y="480" as="sourcePoint" />
            <mxPoint x="250" y="430" as="targetPoint" />
          </mxGeometry>
        </mxCell>
        <mxCell id="uQe86zhzLnGdZcklWKUr-97" value="" style="endArrow=none;html=1;entryX=0.708;entryY=0.033;entryDx=0;entryDy=0;entryPerimeter=0;" edge="1" parent="WIyWlLk6GJQsqaUBKTNV-1" source="g_3AbLO7XpX71Ketfgga-27" target="g_3AbLO7XpX71Ketfgga-32">
          <mxGeometry width="50" height="50" relative="1" as="geometry">
            <mxPoint x="200" y="480" as="sourcePoint" />
            <mxPoint x="250" y="430" as="targetPoint" />
          </mxGeometry>
        </mxCell>
        <mxCell id="uQe86zhzLnGdZcklWKUr-98" value="" style="endArrow=none;html=1;" edge="1" parent="WIyWlLk6GJQsqaUBKTNV-1" source="g_3AbLO7XpX71Ketfgga-27">
          <mxGeometry width="50" height="50" relative="1" as="geometry">
            <mxPoint x="200" y="480" as="sourcePoint" />
            <mxPoint x="500" y="599" as="targetPoint" />
          </mxGeometry>
        </mxCell>
        <mxCell id="uQe86zhzLnGdZcklWKUr-99" value="" style="endArrow=none;html=1;entryX=0;entryY=0;entryDx=0;entryDy=0;" edge="1" parent="WIyWlLk6GJQsqaUBKTNV-1" source="g_3AbLO7XpX71Ketfgga-27" target="g_3AbLO7XpX71Ketfgga-30">
          <mxGeometry width="50" height="50" relative="1" as="geometry">
            <mxPoint x="200" y="480" as="sourcePoint" />
            <mxPoint x="250" y="430" as="targetPoint" />
          </mxGeometry>
        </mxCell>
        <mxCell id="uQe86zhzLnGdZcklWKUr-100" value="" style="endArrow=none;html=1;entryX=0;entryY=0.5;entryDx=0;entryDy=0;exitX=0.933;exitY=0.983;exitDx=0;exitDy=0;exitPerimeter=0;" edge="1" parent="WIyWlLk6GJQsqaUBKTNV-1" source="g_3AbLO7XpX71Ketfgga-27" target="g_3AbLO7XpX71Ketfgga-31">
          <mxGeometry width="50" height="50" relative="1" as="geometry">
            <mxPoint x="200" y="480" as="sourcePoint" />
            <mxPoint x="250" y="430" as="targetPoint" />
          </mxGeometry>
        </mxCell>
        <mxCell id="uQe86zhzLnGdZcklWKUr-101" value="" style="endArrow=none;html=1;" edge="1" parent="WIyWlLk6GJQsqaUBKTNV-1" source="g_3AbLO7XpX71Ketfgga-27" target="g_3AbLO7XpX71Ketfgga-36">
          <mxGeometry width="50" height="50" relative="1" as="geometry">
            <mxPoint x="200" y="480" as="sourcePoint" />
            <mxPoint x="250" y="430" as="targetPoint" />
          </mxGeometry>
        </mxCell>
        <mxCell id="uQe86zhzLnGdZcklWKUr-102" value="" style="endArrow=none;html=1;" edge="1" parent="WIyWlLk6GJQsqaUBKTNV-1" source="g_3AbLO7XpX71Ketfgga-27" target="g_3AbLO7XpX71Ketfgga-39">
          <mxGeometry width="50" height="50" relative="1" as="geometry">
            <mxPoint x="200" y="480" as="sourcePoint" />
            <mxPoint x="250" y="430" as="targetPoint" />
          </mxGeometry>
        </mxCell>
        <mxCell id="uQe86zhzLnGdZcklWKUr-103" value="" style="endArrow=none;html=1;entryX=0.5;entryY=1;entryDx=0;entryDy=0;" edge="1" parent="WIyWlLk6GJQsqaUBKTNV-1" target="g_3AbLO7XpX71Ketfgga-34">
          <mxGeometry width="50" height="50" relative="1" as="geometry">
            <mxPoint x="450" y="456" as="sourcePoint" />
            <mxPoint x="250" y="430" as="targetPoint" />
          </mxGeometry>
        </mxCell>
        <mxCell id="uQe86zhzLnGdZcklWKUr-105" value="" style="endArrow=none;html=1;entryX=1;entryY=1;entryDx=0;entryDy=0;" edge="1" parent="WIyWlLk6GJQsqaUBKTNV-1" source="g_3AbLO7XpX71Ketfgga-110" target="g_3AbLO7XpX71Ketfgga-85">
          <mxGeometry width="50" height="50" relative="1" as="geometry">
            <mxPoint x="-300" y="640" as="sourcePoint" />
            <mxPoint x="-250" y="590" as="targetPoint" />
          </mxGeometry>
        </mxCell>
        <mxCell id="uQe86zhzLnGdZcklWKUr-106" value="" style="endArrow=none;html=1;exitX=0.389;exitY=0.04;exitDx=0;exitDy=0;exitPerimeter=0;" edge="1" parent="WIyWlLk6GJQsqaUBKTNV-1" source="g_3AbLO7XpX71Ketfgga-108" target="g_3AbLO7XpX71Ketfgga-85">
          <mxGeometry width="50" height="50" relative="1" as="geometry">
            <mxPoint x="-300" y="640" as="sourcePoint" />
            <mxPoint x="-250" y="590" as="targetPoint" />
          </mxGeometry>
        </mxCell>
        <mxCell id="uQe86zhzLnGdZcklWKUr-107" value="" style="endArrow=none;html=1;entryX=1;entryY=1;entryDx=0;entryDy=0;" edge="1" parent="WIyWlLk6GJQsqaUBKTNV-1" source="g_3AbLO7XpX71Ketfgga-85" target="g_3AbLO7XpX71Ketfgga-57">
          <mxGeometry width="50" height="50" relative="1" as="geometry">
            <mxPoint x="-300" y="640" as="sourcePoint" />
            <mxPoint x="-250" y="590" as="targetPoint" />
          </mxGeometry>
        </mxCell>
        <mxCell id="uQe86zhzLnGdZcklWKUr-108" value="" style="endArrow=none;html=1;exitX=0.344;exitY=0.02;exitDx=0;exitDy=0;exitPerimeter=0;entryX=1;entryY=1;entryDx=0;entryDy=0;" edge="1" parent="WIyWlLk6GJQsqaUBKTNV-1" source="g_3AbLO7XpX71Ketfgga-105" target="g_3AbLO7XpX71Ketfgga-82">
          <mxGeometry width="50" height="50" relative="1" as="geometry">
            <mxPoint x="-300" y="640" as="sourcePoint" />
            <mxPoint x="-250" y="590" as="targetPoint" />
          </mxGeometry>
        </mxCell>
        <mxCell id="uQe86zhzLnGdZcklWKUr-109" value="" style="endArrow=none;html=1;exitX=0.5;exitY=0;exitDx=0;exitDy=0;entryX=0.317;entryY=1;entryDx=0;entryDy=0;entryPerimeter=0;" edge="1" parent="WIyWlLk6GJQsqaUBKTNV-1" source="g_3AbLO7XpX71Ketfgga-106" target="g_3AbLO7XpX71Ketfgga-82">
          <mxGeometry width="50" height="50" relative="1" as="geometry">
            <mxPoint x="-300" y="640" as="sourcePoint" />
            <mxPoint x="-250" y="590" as="targetPoint" />
          </mxGeometry>
        </mxCell>
        <mxCell id="uQe86zhzLnGdZcklWKUr-110" value="" style="endArrow=none;html=1;entryX=0;entryY=1;entryDx=0;entryDy=0;" edge="1" parent="WIyWlLk6GJQsqaUBKTNV-1" source="g_3AbLO7XpX71Ketfgga-107" target="g_3AbLO7XpX71Ketfgga-82">
          <mxGeometry width="50" height="50" relative="1" as="geometry">
            <mxPoint x="-300" y="640" as="sourcePoint" />
            <mxPoint x="-250" y="590" as="targetPoint" />
          </mxGeometry>
        </mxCell>
        <mxCell id="uQe86zhzLnGdZcklWKUr-111" value="" style="endArrow=none;html=1;" edge="1" parent="WIyWlLk6GJQsqaUBKTNV-1" source="g_3AbLO7XpX71Ketfgga-82" target="g_3AbLO7XpX71Ketfgga-94">
          <mxGeometry width="50" height="50" relative="1" as="geometry">
            <mxPoint x="-300" y="640" as="sourcePoint" />
            <mxPoint x="-250" y="590" as="targetPoint" />
          </mxGeometry>
        </mxCell>
        <mxCell id="uQe86zhzLnGdZcklWKUr-112" value="" style="endArrow=none;html=1;entryX=0;entryY=0.75;entryDx=0;entryDy=0;exitX=1;exitY=0;exitDx=0;exitDy=0;" edge="1" parent="WIyWlLk6GJQsqaUBKTNV-1" source="g_3AbLO7XpX71Ketfgga-82" target="g_3AbLO7XpX71Ketfgga-57">
          <mxGeometry width="50" height="50" relative="1" as="geometry">
            <mxPoint x="-300" y="640" as="sourcePoint" />
            <mxPoint x="-250" y="590" as="targetPoint" />
          </mxGeometry>
        </mxCell>
        <mxCell id="uQe86zhzLnGdZcklWKUr-113" value="" style="endArrow=none;html=1;entryX=0;entryY=0.5;entryDx=0;entryDy=0;exitX=1;exitY=0.5;exitDx=0;exitDy=0;" edge="1" parent="WIyWlLk6GJQsqaUBKTNV-1" source="g_3AbLO7XpX71Ketfgga-104" target="g_3AbLO7XpX71Ketfgga-82">
          <mxGeometry width="50" height="50" relative="1" as="geometry">
            <mxPoint x="-300" y="640" as="sourcePoint" />
            <mxPoint x="-250" y="590" as="targetPoint" />
          </mxGeometry>
        </mxCell>
        <mxCell id="uQe86zhzLnGdZcklWKUr-115" value="Contacts" style="rhombus;whiteSpace=wrap;html=1;" vertex="1" parent="WIyWlLk6GJQsqaUBKTNV-1">
          <mxGeometry x="-80" y="790" width="120" height="80" as="geometry" />
        </mxCell>
        <mxCell id="uQe86zhzLnGdZcklWKUr-117" value="" style="endArrow=none;html=1;entryX=0.5;entryY=0;entryDx=0;entryDy=0;" edge="1" parent="WIyWlLk6GJQsqaUBKTNV-1" source="g_3AbLO7XpX71Ketfgga-57" target="uQe86zhzLnGdZcklWKUr-115">
          <mxGeometry width="50" height="50" relative="1" as="geometry">
            <mxPoint x="-70" y="810" as="sourcePoint" />
            <mxPoint x="-20" y="760" as="targetPoint" />
          </mxGeometry>
        </mxCell>
        <mxCell id="uQe86zhzLnGdZcklWKUr-118" value="" style="endArrow=none;html=1;exitX=0;exitY=0.5;exitDx=0;exitDy=0;entryX=1;entryY=0;entryDx=0;entryDy=0;" edge="1" parent="WIyWlLk6GJQsqaUBKTNV-1" source="uQe86zhzLnGdZcklWKUr-115" target="uQe86zhzLnGdZcklWKUr-31">
          <mxGeometry width="50" height="50" relative="1" as="geometry">
            <mxPoint x="-70" y="810" as="sourcePoint" />
            <mxPoint x="-20" y="760" as="targetPoint" />
          </mxGeometry>
        </mxCell>
        <mxCell id="uQe86zhzLnGdZcklWKUr-119" value="" style="endArrow=none;html=1;entryX=0;entryY=0;entryDx=0;entryDy=0;exitX=1;exitY=0.5;exitDx=0;exitDy=0;" edge="1" parent="WIyWlLk6GJQsqaUBKTNV-1" source="uQe86zhzLnGdZcklWKUr-115" target="uQe86zhzLnGdZcklWKUr-27">
          <mxGeometry width="50" height="50" relative="1" as="geometry">
            <mxPoint x="-70" y="810" as="sourcePoint" />
            <mxPoint x="-20" y="760" as="targetPoint" />
          </mxGeometry>
        </mxCell>
        <mxCell id="uQe86zhzLnGdZcklWKUr-120" value="Stores" style="rhombus;whiteSpace=wrap;html=1;" vertex="1" parent="WIyWlLk6GJQsqaUBKTNV-1">
          <mxGeometry x="280" y="990" width="120" height="80" as="geometry" />
        </mxCell>
        <mxCell id="uQe86zhzLnGdZcklWKUr-121" value="" style="endArrow=none;html=1;exitX=1;exitY=0.5;exitDx=0;exitDy=0;entryX=0;entryY=0.5;entryDx=0;entryDy=0;" edge="1" parent="WIyWlLk6GJQsqaUBKTNV-1" source="uQe86zhzLnGdZcklWKUr-31" target="uQe86zhzLnGdZcklWKUr-120">
          <mxGeometry width="50" height="50" relative="1" as="geometry">
            <mxPoint x="-20" y="850" as="sourcePoint" />
            <mxPoint x="50" y="980" as="targetPoint" />
            <Array as="points">
              <mxPoint x="-60" y="940" />
              <mxPoint x="50" y="1010" />
            </Array>
          </mxGeometry>
        </mxCell>
        <mxCell id="uQe86zhzLnGdZcklWKUr-122" value="" style="endArrow=none;html=1;exitX=1;exitY=0.5;exitDx=0;exitDy=0;entryX=0;entryY=0.5;entryDx=0;entryDy=0;" edge="1" parent="WIyWlLk6GJQsqaUBKTNV-1" source="uQe86zhzLnGdZcklWKUr-120" target="uQe86zhzLnGdZcklWKUr-56">
          <mxGeometry width="50" height="50" relative="1" as="geometry">
            <mxPoint x="370" y="850" as="sourcePoint" />
            <mxPoint x="420" y="800" as="targetPoint" />
            <Array as="points">
              <mxPoint x="430" y="890" />
            </Array>
          </mxGeometry>
        </mxCell>
        <mxCell id="uQe86zhzLnGdZcklWKUr-124" value="" style="endArrow=none;html=1;exitX=0.75;exitY=1;exitDx=0;exitDy=0;entryX=0.5;entryY=0;entryDx=0;entryDy=0;" edge="1" parent="WIyWlLk6GJQsqaUBKTNV-1" source="uQe86zhzLnGdZcklWKUr-27" target="uQe86zhzLnGdZcklWKUr-120">
          <mxGeometry width="50" height="50" relative="1" as="geometry">
            <mxPoint x="160" y="850" as="sourcePoint" />
            <mxPoint x="210" y="800" as="targetPoint" />
            <Array as="points">
              <mxPoint x="280" y="990" />
            </Array>
          </mxGeometry>
        </mxCell>
      </root>
    </mxGraphModel>
  </diagram>
</mxfile>
